<svg width="85" height="85" viewBox="0 0 85 85" fill="none" xmlns="http://www.w3.org/2000/svg">
<path d="M58.4375 37.0215H26.5625C26.1973 37.0215 25.8984 37.3203 25.8984 37.6855V71.0547C25.8984 71.4199 26.1973 71.7188 26.5625 71.7188H58.4375C58.8027 71.7188 59.1016 71.4199 59.1016 71.0547V37.6855C59.1016 37.3203 58.8027 37.0215 58.4375 37.0215ZM31.2109 42.334H53.7891V52.0459H31.2109V42.334ZM53.7891 66.4062H31.2109V56.6943H53.7891V66.4062Z" fill="#5E5AFF"/>
<path d="M35.1953 62.0898C35.1953 62.7943 35.4752 63.47 35.9733 63.9681C36.4715 64.4662 37.1471 64.7461 37.8516 64.7461C38.556 64.7461 39.2317 64.4662 39.7298 63.9681C40.228 63.47 40.5078 62.7943 40.5078 62.0898C40.5078 61.3854 40.228 60.7097 39.7298 60.2116C39.2317 59.7134 38.556 59.4336 37.8516 59.4336C37.1471 59.4336 36.4715 59.7134 35.9733 60.2116C35.4752 60.7097 35.1953 61.3854 35.1953 62.0898ZM35.1953 47.3145C35.1953 48.0189 35.4752 48.6946 35.9733 49.1927C36.4715 49.6909 37.1471 49.9707 37.8516 49.9707C38.556 49.9707 39.2317 49.6909 39.7298 49.1927C40.228 48.6946 40.5078 48.0189 40.5078 47.3145C40.5078 46.61 40.228 45.9343 39.7298 45.4362C39.2317 44.9381 38.556 44.6582 37.8516 44.6582C37.1471 44.6582 36.4715 44.9381 35.9733 45.4362C35.4752 45.9343 35.1953 46.61 35.1953 47.3145Z" fill="#5E5AFF"/>
<path d="M67.3525 30.6216C63.5508 20.5859 53.8638 13.4473 42.5166 13.4473C31.1694 13.4473 21.4824 20.5776 17.6807 30.6133C10.5337 32.4976 5.271 39.0303 5.3125 46.7832C5.3623 55.4492 12.0859 62.4966 20.5527 63.252C20.9429 63.2852 21.2749 62.978 21.2749 62.5879V57.5742C21.2749 57.2422 21.0259 56.96 20.6938 56.9185C18.4526 56.6362 16.3359 55.6567 14.709 54.0547C12.7168 52.104 11.6211 49.481 11.6211 46.7002C11.6211 44.376 12.3765 42.1846 13.7959 40.3584C15.1821 38.582 17.1328 37.2954 19.2827 36.731L22.4287 35.9009L23.5825 32.8545C24.2964 30.9619 25.2925 29.1855 26.5459 27.5835C27.7827 25.9897 29.252 24.5952 30.8955 23.4331C34.3071 21.0342 38.3247 19.7642 42.5166 19.7642C46.7085 19.7642 50.7261 21.0342 54.1377 23.4414C55.7896 24.6035 57.2505 25.998 58.4873 27.5918C59.7407 29.1938 60.7368 30.9702 61.4507 32.8628L62.5962 35.9009L65.7339 36.731C70.2329 37.9263 73.3789 42.0186 73.3789 46.6919C73.3789 49.481 72.2832 52.0957 70.291 54.0464C68.6724 55.6401 66.564 56.6279 64.3228 56.9102C63.9907 56.9517 63.75 57.2339 63.75 57.5659V62.5879C63.75 62.978 64.0903 63.2852 64.4805 63.252C72.9224 62.4883 79.6294 55.4492 79.6875 46.7998C79.7373 39.0469 74.4829 32.5142 67.3525 30.6216Z" fill="#5E5AFF"/>
</svg>
