<svg width="85" height="85" viewBox="0 0 85 85" fill="none" xmlns="http://www.w3.org/2000/svg">
<path d="M70.8333 60.2083V24.7917C70.8333 17.1133 57.8602 10.625 42.5 10.625C27.1398 10.625 14.1667 17.1133 14.1667 24.7917V60.2083C14.1667 67.8867 27.1398 74.375 42.5 74.375C57.8602 74.375 70.8333 67.8867 70.8333 60.2083ZM42.5 17.7083C55.5723 17.7083 63.5056 23.0456 63.75 24.7704C63.5056 26.5377 55.5723 31.875 42.5 31.875C29.4277 31.875 21.4944 26.5377 21.25 24.8129C21.4944 23.0456 29.4277 17.7083 42.5 17.7083ZM21.25 34.0248C26.4881 37.0246 34.131 38.9583 42.5 38.9583C50.869 38.9583 58.5119 37.0246 63.75 34.0248V42.4788C63.5056 44.246 55.5723 49.5833 42.5 49.5833C29.4277 49.5833 21.4944 44.246 21.25 42.5V34.0248ZM21.25 60.2083V51.7331C26.4881 54.7329 34.131 56.6667 42.5 56.6667C50.869 56.6667 58.5119 54.7329 63.75 51.7331V60.1871C63.5056 61.9544 55.5723 67.2917 42.5 67.2917C29.4277 67.2917 21.4944 61.9544 21.25 60.2083Z" fill="#5E5AFF"/>
</svg>
