<svg width="30" height="30" viewBox="0 0 30 30" fill="none" xmlns="http://www.w3.org/2000/svg">
<path d="M15 10.3134C12.4196 10.3134 10.3137 12.4193 10.3137 14.9998C10.3137 17.5802 12.4196 19.6861 15 19.6861C17.5805 19.6861 19.6864 17.5802 19.6864 14.9998C19.6864 12.4193 17.5805 10.3134 15 10.3134ZM29.0555 14.9998C29.0555 13.0592 29.0731 11.1361 28.9641 9.19899C28.8551 6.94899 28.3418 4.95212 26.6965 3.30681C25.0477 1.65798 23.0543 1.14821 20.8043 1.03923C18.8637 0.930245 16.9407 0.947823 15.0036 0.947823C13.0629 0.947823 11.1399 0.930245 9.20278 1.03923C6.95278 1.14821 4.9559 1.66149 3.31059 3.30681C1.66176 4.95564 1.152 6.94899 1.04301 9.19899C0.934029 11.1396 0.951607 13.0627 0.951607 14.9998C0.951607 16.9369 0.934029 18.8634 1.04301 20.8006C1.152 23.0506 1.66528 25.0474 3.31059 26.6927C4.95942 28.3416 6.95278 28.8513 9.20278 28.9603C11.1434 29.0693 13.0665 29.0517 15.0036 29.0517C16.9442 29.0517 18.8672 29.0693 20.8043 28.9603C23.0543 28.8513 25.0512 28.3381 26.6965 26.6927C28.3454 25.0439 28.8551 23.0506 28.9641 20.8006C29.0766 18.8634 29.0555 16.9404 29.0555 14.9998ZM15 22.2103C11.0098 22.2103 7.7895 18.99 7.7895 14.9998C7.7895 11.0095 11.0098 7.78923 15 7.78923C18.9903 7.78923 22.2106 11.0095 22.2106 14.9998C22.2106 18.99 18.9903 22.2103 15 22.2103ZM22.5059 9.1779C21.5743 9.1779 20.8219 8.42556 20.8219 7.49392C20.8219 6.56228 21.5743 5.80993 22.5059 5.80993C23.4375 5.80993 24.1899 6.56228 24.1899 7.49392C24.1902 7.71514 24.1468 7.93424 24.0623 8.13868C23.9777 8.34311 23.8537 8.52886 23.6973 8.68529C23.5409 8.84172 23.3551 8.96575 23.1507 9.05028C22.9462 9.13481 22.7271 9.17818 22.5059 9.1779Z" fill="#081D3F"/>
</svg>
