<svg width="70" height="70" viewBox="0 0 70 70" fill="none" xmlns="http://www.w3.org/2000/svg">
<circle cx="35" cy="35" r="35" fill="url(#paint0_linear_3:18)"/>
<path d="M42.6512 27.3487C41.948 26.6457 40.9944 26.2508 40 26.2508C39.0056 26.2508 38.052 26.6457 37.3487 27.3487L36.7675 27.9287L38.535 29.6962L39.1162 29.1162C39.352 28.8885 39.6677 28.7626 39.9955 28.7654C40.3232 28.7682 40.6368 28.8997 40.8685 29.1315C41.1003 29.3632 41.2317 29.6767 41.2346 30.0045C41.2374 30.3322 41.1114 30.648 40.8837 30.8837L36.7675 35L38.535 36.7675L42.6512 32.6512C43.3543 31.948 43.7492 30.9944 43.7492 30C43.7492 29.0056 43.3543 28.052 42.6512 27.3487Z" fill="white"/>
<path d="M30.8837 40.8837C30.648 41.1114 30.3322 41.2374 30.0045 41.2346C29.6768 41.2317 29.3632 41.1003 29.1315 40.8685C28.8997 40.6368 28.7683 40.3232 28.7654 39.9955C28.7626 39.6677 28.8886 39.352 29.1163 39.1162L33.2325 35L31.465 33.2325L27.3487 37.3487C26.9906 37.6947 26.7049 38.1085 26.5084 38.566C26.3118 39.0235 26.2084 39.5156 26.2041 40.0135C26.1997 40.5114 26.2946 41.0052 26.4832 41.4661C26.6717 41.9269 26.9502 42.3456 27.3023 42.6977C27.6544 43.0498 28.0731 43.3283 28.5339 43.5168C28.9948 43.7054 29.4886 43.8003 29.9865 43.7959C30.4844 43.7916 30.9765 43.6882 31.434 43.4916C31.8915 43.2951 32.3053 43.0094 32.6513 42.6512L33.2325 42.0712L31.465 40.3037L30.8837 40.8837Z" fill="white"/>
<path d="M32.6512 27.3488C31.9418 26.6777 30.9986 26.3099 30.0222 26.3235C29.0458 26.3371 28.1132 26.731 27.4227 27.4215C26.7322 28.112 26.3383 29.0446 26.3247 30.021C26.3111 30.9974 26.679 31.9406 27.35 32.65L27.93 33.2313L29.6975 31.4638L29.1175 30.8825C28.8898 30.6468 28.7638 30.331 28.7666 30.0033C28.7695 29.6755 28.9009 29.362 29.1327 29.1302C29.3645 28.8985 29.678 28.767 30.0057 28.7642C30.3335 28.7613 30.6492 28.8873 30.885 29.115L35 33.2325L36.7675 31.465L32.6512 27.3488Z" fill="white"/>
<path d="M42.6512 37.3487L42.0712 36.7675L40.3037 38.535L40.8837 39.1162C41.1114 39.352 41.2374 39.6677 41.2346 39.9955C41.2317 40.3232 41.1003 40.6368 40.8685 40.8685C40.6367 41.1003 40.3232 41.2317 39.9955 41.2346C39.6677 41.2374 39.352 41.1114 39.1162 40.8837L35 36.7675L33.2325 38.535L37.3487 42.6512C38.056 43.3343 39.0033 43.7123 39.9865 43.7038C40.9697 43.6952 41.9103 43.3008 42.6056 42.6056C43.3008 41.9103 43.6952 40.9697 43.7038 39.9865C43.7123 39.0033 43.3343 38.056 42.6512 37.3487Z" fill="white"/>
<path d="M35 53.75C34.7786 53.7502 34.5612 53.6915 34.37 53.58L19.37 44.83C19.1813 44.7199 19.0247 44.5622 18.9159 44.3727C18.8071 44.1832 18.7499 43.9685 18.75 43.75V26.25C18.7499 26.0315 18.8071 25.8168 18.9159 25.6273C19.0247 25.4378 19.1813 25.2801 19.37 25.17L34.37 16.42C34.5612 16.3084 34.7786 16.2496 35 16.2496C35.2214 16.2496 35.4388 16.3084 35.63 16.42L50.63 25.17L49.37 27.33L35 18.9475L21.25 26.9675V43.0325L35 51.0538L48.75 43.0325V33.75H51.25V43.75C51.2501 43.9685 51.1929 44.1832 51.0841 44.3727C50.9753 44.5622 50.8187 44.7199 50.63 44.83L35.63 53.58C35.4388 53.6915 35.2214 53.7502 35 53.75Z" fill="white"/>
<defs>
<linearGradient id="paint0_linear_3:18" x1="0" y1="0" x2="70" y2="70" gradientUnits="userSpaceOnUse">
<stop stop-color="#5E5AFF"/>
<stop offset="1" stop-color="#FF4BF8"/>
</linearGradient>
</defs>
</svg>
