<svg width="85" height="85" viewBox="0 0 85 85" fill="none" xmlns="http://www.w3.org/2000/svg">
<path d="M65.0392 19.9608L52.5158 32.4842L65.0392 19.9608ZM52.5158 52.5158L65.0392 65.0392L52.5158 52.5158ZM32.4842 32.4842L19.9608 19.9608L32.4842 32.4842ZM32.4842 52.5158L19.9608 65.0392L32.4842 52.5158ZM74.375 42.5C74.375 46.6859 73.5505 50.8308 71.9487 54.698C70.3468 58.5653 67.9989 62.0792 65.039 65.039C62.0792 67.9989 58.5653 70.3468 54.698 71.9487C50.8308 73.5505 46.6859 74.375 42.5 74.375C38.3141 74.375 34.1692 73.5505 30.302 71.9487C26.4347 70.3468 22.9208 67.9989 19.961 65.039C17.0011 62.0792 14.6532 58.5653 13.0513 54.698C11.4495 50.8308 10.625 46.6859 10.625 42.5C10.625 34.0462 13.9832 25.9387 19.961 19.961C25.9387 13.9832 34.0462 10.625 42.5 10.625C50.9538 10.625 59.0613 13.9832 65.039 19.961C71.0167 25.9387 74.375 34.0462 74.375 42.5ZM56.6667 42.5C56.6667 46.2572 55.1741 49.8606 52.5173 52.5173C49.8606 55.1741 46.2572 56.6667 42.5 56.6667C38.7428 56.6667 35.1394 55.1741 32.4827 52.5173C29.8259 49.8606 28.3333 46.2572 28.3333 42.5C28.3333 38.7428 29.8259 35.1394 32.4827 32.4827C35.1394 29.8259 38.7428 28.3333 42.5 28.3333C46.2572 28.3333 49.8606 29.8259 52.5173 32.4827C55.1741 35.1394 56.6667 38.7428 56.6667 42.5V42.5Z" stroke="#5E5AFF" stroke-width="7" stroke-linecap="round" stroke-linejoin="round"/>
</svg>
