<svg width="66" height="66" viewBox="0 0 66 66" fill="none" xmlns="http://www.w3.org/2000/svg">
<path d="M23.8333 0.916676H42.1666V65.0833H23.8333V0.916676Z" fill="#5E5AFF"/>
<path d="M0.916656 65.0834V23.8334H19.25V65.0834H0.916656Z" fill="#5E5AFF"/>
<path d="M10.0833 0.916676C7.65217 0.916676 5.3206 1.88245 3.60151 3.60153C1.88243 5.32061 0.916656 7.65219 0.916656 10.0833C0.916656 12.5145 1.88243 14.8461 3.60151 16.5651C5.3206 18.2842 7.65217 19.25 10.0833 19.25C12.5145 19.25 14.8461 18.2842 16.5651 16.5651C18.2842 14.8461 19.25 12.5145 19.25 10.0833C19.25 7.65219 18.2842 5.32061 16.5651 3.60153C14.8461 1.88245 12.5145 0.916676 10.0833 0.916676V0.916676Z" fill="#5E5AFF"/>
<path d="M46.75 0.916676H65.0833V19.25H46.75V0.916676Z" fill="#5E5AFF"/>
<path d="M65.0833 23.8334H46.75V42.1667H65.0833V23.8334Z" fill="#5E5AFF"/>
</svg>
