<svg width="26" height="21" viewBox="0 0 26 21" fill="none" xmlns="http://www.w3.org/2000/svg">
<path d="M25.5983 2.55403C24.659 2.97028 23.6498 3.25153 22.589 3.37865C23.6836 2.72367 24.5025 1.6928 24.893 0.478404C23.8645 1.08927 22.739 1.51925 21.5652 1.74965C20.7759 0.906877 19.7304 0.34827 18.5911 0.160562C17.4517 -0.0271469 16.2823 0.166544 15.2643 0.711563C14.2464 1.25658 13.4368 2.12244 12.9614 3.1747C12.4859 4.22695 12.3712 5.40675 12.635 6.5309C10.5511 6.42627 8.51253 5.88465 6.65155 4.94117C4.79058 3.9977 3.14877 2.67346 1.8327 1.0544C1.3827 1.83065 1.12395 2.73065 1.12395 3.68915C1.12345 4.55202 1.33594 5.40168 1.74257 6.16273C2.14919 6.92378 2.73738 7.5727 3.45495 8.0519C2.62276 8.02542 1.80893 7.80056 1.0812 7.39603V7.46353C1.08112 8.67374 1.49974 9.8467 2.26603 10.7834C3.03233 11.7201 4.0991 12.3628 5.28533 12.6025C4.51333 12.8115 3.70396 12.8422 2.91833 12.6925C3.25301 13.7338 3.90495 14.6444 4.78287 15.2968C5.66078 15.9492 6.72073 16.3107 7.81433 16.3308C5.95789 17.7881 3.6652 18.5786 1.30508 18.5752C0.887006 18.5753 0.469288 18.5509 0.0540771 18.502C2.44974 20.0424 5.23846 20.8598 8.08658 20.8567C17.7278 20.8567 22.9985 12.8714 22.9985 5.9459C22.9985 5.7209 22.9928 5.49365 22.9827 5.26865C24.0079 4.52725 24.8929 3.60916 25.5961 2.5574L25.5983 2.55403Z" fill="#081D3F"/>
</svg>
