<svg width="27" height="27" viewBox="0 0 27 27" fill="none" xmlns="http://www.w3.org/2000/svg">
<path d="M17.6435 0H9.35537C1.79199 0 -0.000976562 1.79297 -0.000976562 9.35634V17.6445C-0.000976562 25.2079 1.79199 27.0008 9.35537 27.0008H17.6435C25.2069 27.0008 26.9999 25.2079 26.9999 17.6445V9.35634C26.9999 1.79297 25.1892 0 17.6435 0ZM21.7965 19.2611H19.8364C19.0939 19.2611 18.8653 18.6722 17.5296 17.3188C16.3695 16.1941 15.8556 16.0448 15.5696 16.0448C15.1654 16.0448 15.0507 16.1587 15.0507 16.713V18.484C15.0507 18.9591 14.9013 19.2443 13.6441 19.2443C11.5651 19.2443 9.25834 17.9871 7.64087 15.6448C5.20159 12.2124 4.53418 9.64153 4.53418 9.10997C4.53418 8.82394 4.64809 8.55647 5.19737 8.55647H7.16162C7.65859 8.55647 7.84759 8.78512 8.0408 9.31669C9.01196 12.1205 10.6294 14.5766 11.2968 14.5766C11.5432 14.5766 11.6571 14.4627 11.6571 13.8341V10.9384C11.582 9.60272 10.8792 9.48797 10.8792 9.01378C10.8792 8.78512 11.0682 8.55647 11.3711 8.55647H14.4601C14.8777 8.55647 15.0313 8.78512 15.0313 9.27703V13.1836C15.0313 13.6055 15.2203 13.7548 15.3342 13.7548C15.5806 13.7548 15.7915 13.6055 16.248 13.1482C17.6587 11.5661 18.6695 9.12684 18.6695 9.12684C18.8011 8.84081 19.0298 8.57334 19.5268 8.57334H21.491C22.08 8.57334 22.2116 8.87625 22.08 9.29813C21.8336 10.4406 19.4297 13.8333 19.4297 13.8333C19.223 14.1758 19.1437 14.3252 19.4297 14.7074C19.6407 14.9934 20.3266 15.5866 20.7831 16.1182C21.6226 17.0716 22.2681 17.8715 22.4402 18.425C22.6335 18.9743 22.3483 19.2603 21.7939 19.2603L21.7965 19.2611Z" fill="#081D3F"/>
</svg>
